<svg id="Capa_1" enable-background="new 0 0 512 512" height="512" viewBox="0 0 512 512" width="512" xmlns="http://www.w3.org/2000/svg"><g id="XMLID_1715_"><g id="XMLID_5_"><path id="XMLID_6_" d="m256 290.88c2.63 0 5.21-1.07 7.069-2.93 1.86-1.86 2.931-4.44 2.931-7.07s-1.07-5.21-2.931-7.07c-1.859-1.86-4.439-2.93-7.069-2.93s-5.21 1.07-7.07 2.93-2.93 4.44-2.93 7.07 1.069 5.21 2.93 7.07c1.86 1.86 4.44 2.93 7.07 2.93z"/><path id="XMLID_448_" d="m256 250.38c2.63 0 5.21-1.07 7.069-2.93 1.86-1.86 2.931-4.44 2.931-7.07s-1.07-5.21-2.931-7.07c-1.859-1.86-4.439-2.93-7.069-2.93s-5.21 1.07-7.07 2.93-2.93 4.44-2.93 7.07c0 2.64 1.069 5.21 2.93 7.07 1.86 1.86 4.44 2.93 7.07 2.93z"/><path id="XMLID_1039_" d="m256 209.88c2.63 0 5.21-1.07 7.069-2.93 1.86-1.86 2.931-4.44 2.931-7.07s-1.07-5.21-2.931-7.07c-1.859-1.86-4.439-2.93-7.069-2.93s-5.21 1.07-7.07 2.93-2.93 4.44-2.93 7.07c0 2.64 1.069 5.21 2.93 7.07 1.86 1.86 4.44 2.93 7.07 2.93z"/><path id="XMLID_1043_" d="m502 175.382c-26.105 0-51.224 8.692-71.584 24.343v-72.843c0-5.523-4.477-10-10-10-36.476 0-68.348 20.041-85.22 49.681-11.772-40.904-37.471-77.055-73.555-101.704-3.402-2.323-7.879-2.323-11.281 0-36.086 24.649-61.785 60.803-73.557 101.709-16.872-29.642-48.741-49.686-85.219-49.686-5.522 0-10 4.477-10 10v72.843c-20.36-15.651-45.48-24.343-71.584-24.343-5.523 0-10 4.477-10 10v24.884c0 80.927 59.63 148.187 137.26 160.156-11.87 11.571-19.26 27.716-19.26 45.562v22.898c0 3.58 1.913 6.887 5.018 8.67 1.543.887 3.263 1.33 4.982 1.33 1.739 0 3.48-.454 5.035-1.36l18.488-10.773c16.689-9.726 35.722-14.867 55.038-14.867 15.905 0 30.852-6.202 42.084-17.463 2.766-2.773 5.221-5.772 7.355-8.952 2.134 3.18 4.589 6.179 7.354 8.952 11.232 11.261 26.179 17.463 42.084 17.463 19.317 0 38.35 5.141 55.038 14.867l18.488 10.774c1.556.906 3.295 1.36 5.035 1.36 1.72 0 3.44-.443 4.982-1.33 3.104-1.784 5.018-5.09 5.018-8.67v-22.899c0-17.853-7.397-34.003-19.274-45.576 18.18-2.809 35.822-8.683 51.985-17.391 4.862-2.62 6.68-8.685 4.061-13.547s-8.685-6.68-13.547-4.061c-18.811 10.135-39.919 15.877-61.388 16.77 43.499-25.28 73.148-71.874 74.528-125.38 16.157-17.523 38.094-28.476 61.635-30.903v14.371c0 22.994-5.618 45.828-16.246 66.033-2.57 4.888-.692 10.935 4.195 13.505 1.485.782 3.077 1.152 4.647 1.152 3.595 0 7.069-1.944 8.859-5.347 12.133-23.065 18.546-49.118 18.546-75.344v-24.884c0-5.523-4.478-10-10-10zm-246-89.98c41.714 31.122 66.416 80.076 66.416 132.315 0 52.238-24.702 101.193-66.416 132.314-41.714-31.121-66.416-80.076-66.416-132.314 0-52.239 24.702-101.193 66.416-132.315zm-154.416 52.118c38.306 4.922 68 37.739 68 77.362l.044.001c-.014.945-.044 1.888-.044 2.835 0 51.353 21.293 99.864 58.056 134.556-69.815-1.793-126.056-59.143-126.056-129.382zm-81.584 72.746v-14.371c23.54 2.426 45.479 13.379 61.635 30.903 1.38 53.511 31.034 100.109 74.539 125.387-75.612-3.093-136.174-65.561-136.174-141.919zm186.561 191.616c-22.851 0-45.364 6.082-65.108 17.586l-3.453 2.013v-5.497c0-24.078 19.589-43.667 43.667-43.667h63.088c-1.729 6.739-5.226 12.921-10.27 17.978-7.453 7.472-17.37 11.587-27.924 11.587zm167.439 19.599-3.453-2.013c-19.743-11.504-42.257-17.586-65.108-17.586-10.554 0-20.471-4.115-27.924-11.587-5.043-5.057-8.54-11.24-10.27-17.978h63.088c24.078 0 43.667 19.589 43.667 43.667zm36.416-198.59c0 70.239-56.241 127.589-126.056 129.382 36.763-34.692 58.056-83.203 58.056-134.556 0-.948-.029-1.891-.044-2.837l.044.002c0-39.623 29.694-72.44 68-77.362z"/><path id="XMLID_1064_" d="m458 307.25c-2.641 0-5.21 1.06-7.07 2.93-1.87 1.86-2.93 4.43-2.93 7.07 0 2.63 1.06 5.21 2.93 7.07 1.86 1.86 4.43 2.93 7.07 2.93 2.63 0 5.2-1.07 7.069-2.93 1.86-1.86 2.921-4.44 2.921-7.07 0-2.64-1.061-5.21-2.921-7.07-1.869-1.87-4.439-2.93-7.069-2.93z"/></g></g></svg>